<?xml version="1.0" encoding="utf-8"?><svg viewBox="0 0 141 135" xmlns="http://www.w3.org/2000/svg" xmlns:xlink="http://www.w3.org/1999/xlink"><style>:root>svg{display:none}:root>svg:target{display:block}</style><svg fill="none" viewBox="0 0 32 32" id="arrow-down" xmlns="http://www.w3.org/2000/svg"><path d="M14.904 26.092a1.331 1.331 0 0 0 2.192 0l12-17.333A1.332 1.332 0 0 0 28 6.667H4a1.336 1.336 0 0 0-1.096 2.092l12 17.333Z" fill="#fff"/></svg><svg fill="none" viewBox="0 0 31 21" id="eye" xmlns="http://www.w3.org/2000/svg"><path d="M30.375 9.912c-.044-.1-1.105-2.447-3.46-4.799C23.774 1.98 19.813.325 15.453.328 11.093.332 7.133 1.993 4 5.131 1.648 7.487.586 9.841.547 9.935a1 1 0 0 0 0 .813c.045.099 1.105 2.445 3.46 4.797 3.14 3.132 7.102 4.787 11.462 4.783 4.36-.003 8.32-1.664 11.454-4.801 2.352-2.356 3.409-4.704 3.452-4.803a1 1 0 0 0 0-.812Zm-14.908 8.416c-3.847.003-7.21-1.393-9.994-4.148a16.684 16.684 0 0 1-2.887-3.841c.77-1.415 1.74-2.71 2.88-3.846 2.781-2.76 6.141-4.162 9.989-4.165 3.847-.003 7.21 1.393 9.994 4.149a16.684 16.684 0 0 1 2.893 3.841c-.9 1.683-4.82 8.004-12.874 8.01Zm-.01-14a6 6 0 1 0 6.004 5.996 6.006 6.006 0 0 0-6.005-5.996Zm.007 10a4 4 0 1 1-.006-8 4 4 0 0 1 .006 8Z" fill="#fff"/></svg><svg fill="none" viewBox="0 0 64 64" id="facebook" xmlns="http://www.w3.org/2000/svg"><path d="M32 64c17.673 0 32-14.327 32-32C64 14.327 49.673 0 32 0 14.327 0 0 14.327 0 32c0 17.673 14.327 32 32 32z" fill="#3C5A99"/><path d="M34.487 48V33.425H39.4l.738-5.706h-5.65v-3.631c0-1.65.456-2.77 2.818-2.77H40.3v-5.087c-.519-.068-2.306-.225-4.388-.225-4.343 0-7.318 2.65-7.318 7.52v4.2H23.7v5.705h4.894v14.57h5.893z" fill="#fff"/></svg><svg fill="none" viewBox="0 0 42 34" id="hide-eye" xmlns="http://www.w3.org/2000/svg"><path d="M18.46 3.146A21.92 21.92 0 0 1 21 3c9.328 0 16.8 5.806 20 14a23.189 23.189 0 0 1-3.11 5.576M10.04 6.038C5.96 8.528 2.8 12.386 1 17c3.2 8.194 10.672 14 20 14a20.88 20.88 0 0 0 10.96-3.04m-15.2-15.2a6 6 0 1 0 8.486 8.486" stroke="#fff" stroke-width="2" stroke-linecap="round" stroke-linejoin="round"/><path d="m5 1 32 32" stroke="#fff" stroke-width="2" stroke-linecap="round"/></svg><svg fill="none" viewBox="0 0 64 64" id="instagram" xmlns="http://www.w3.org/2000/svg"><path d="M32 64c17.673 0 32-14.327 32-32C64 14.327 49.673 0 32 0 14.327 0 0 14.327 0 32c0 17.673 14.327 32 32 32z" fill="#E4405F"/><path d="M32 16c-4.344 0-4.887.019-6.594.094-1.706.081-2.862.35-3.881.743a7.895 7.895 0 0 0-2.837 1.844 7.712 7.712 0 0 0-1.844 2.838c-.394 1.019-.663 2.181-.744 3.881-.081 1.706-.094 2.25-.094 6.594 0 4.343.019 4.887.094 6.593.081 1.7.35 2.863.744 3.882a7.896 7.896 0 0 0 1.843 2.837 7.79 7.79 0 0 0 2.838 1.844c1.019.394 2.181.663 3.881.744 1.707.081 2.25.093 6.594.093s4.888-.018 6.594-.093c1.7-.081 2.862-.35 3.881-.744a7.896 7.896 0 0 0 2.837-1.844 7.789 7.789 0 0 0 1.844-2.837c.394-1.019.663-2.181.744-3.882.081-1.706.094-2.25.094-6.593 0-4.344-.019-4.888-.094-6.594-.081-1.7-.35-2.862-.744-3.881a7.896 7.896 0 0 0-1.843-2.838 7.79 7.79 0 0 0-2.838-1.844c-1.019-.393-2.181-.662-3.881-.743C36.888 16.019 36.344 16 32 16zm0 2.881c4.269 0 4.781.019 6.469.094 1.562.075 2.406.331 2.968.556.75.288 1.282.638 1.844 1.194a4.971 4.971 0 0 1 1.194 1.844c.219.562.481 1.406.55 2.969.075 1.687.094 2.193.094 6.468s-.019 4.782-.1 6.469c-.081 1.563-.344 2.406-.563 2.969-.3.75-.637 1.281-1.2 1.843-.556.557-1.1.907-1.837 1.194-.563.219-1.419.481-2.981.55-1.7.075-2.2.094-6.482.094-4.281 0-4.781-.019-6.481-.1-1.563-.081-2.419-.344-2.981-.563-.756-.3-1.282-.637-1.838-1.2a4.862 4.862 0 0 1-1.2-1.837c-.218-.563-.481-1.419-.562-2.981-.063-1.681-.081-2.2-.081-6.457 0-4.262.018-4.78.08-6.48.082-1.563.338-2.42.563-2.982.282-.762.638-1.281 1.2-1.844.556-.556 1.082-.919 1.838-1.2.562-.219 1.4-.481 2.962-.562 1.7-.063 2.2-.082 6.482-.082l.062.044zm0 4.9A8.22 8.22 0 0 0 23.781 32 8.22 8.22 0 0 0 32 40.219 8.22 8.22 0 0 0 40.219 32 8.22 8.22 0 0 0 32 23.781zm0 13.55a5.332 5.332 0 1 1 .001-10.664A5.332 5.332 0 0 1 32 37.331zm10.462-13.869a1.92 1.92 0 0 1-3.837 0c0-1.056.862-1.918 1.919-1.918a1.915 1.915 0 0 1 1.919 1.918z" fill="#fff"/></svg><svg fill="none" viewBox="0 0 141 135" id="logo" xmlns="http://www.w3.org/2000/svg"><ellipse cx="70.5" cy="67.5" rx="70.5" ry="67.5" fill="#839489"/><path d="M105.891 70.655c1.187 3.345 1.515 5.839.919 8.867l-2.017 10.247 3.472 12.03s.215 9.397.003 16.31c-.066 2.141-1.691 3.891-3.628 3.891h-.629c-2.397 0-3.429-2.61-3.429-5.262l-1.517-16.532s-13.34-10.77-11.501-26.801M61.102 91.505c6.827-.404 20.007 0 26.685-5.295" stroke="#fff" stroke-width="2.869" stroke-miterlimit="10" stroke-linecap="round" stroke-linejoin="round"/><path d="M93.353 26c10.258 3.045 14.38 8.452 15.403 14.194 1.851 10.38-7.144 19.302-16.426 16.75-4.498-1.237-8.278-.872-8.278-.872l-32.77-.275C48.275 39.791 39.8 36.954 39.8 36.954 38.259 26 32.138 26 32.138 26l-1.246 9.533-2.608.493c-1.397.264-2.693.975-3.727 2.046l-2.409 2.493-7.326.872c-1.356.161-2.189 1.721-1.662 3.113l1.568 4.141c.516 1.362 1.614 2.348 2.925 2.625L29.17 52.76s-1.781 25.94 4.86 29.88c14.48 8.59 7.848 32.548 7.848 32.548-1.463 2.83-.333 6.812 2.614 6.812h.003c1.413 0 2.713-.86 3.38-2.239l3.74-10.772 2.453-18.016c.192-1.414-.065-2.842-.65-4.117-1.026-2.233-2.233-6.62-.245-12.856" stroke="#fff" stroke-width="2.869" stroke-miterlimit="10" stroke-linecap="round" stroke-linejoin="round"/><path d="m30.33 79.292-7.75 13.11a6.344 6.344 0 0 0-.924 3.19c-.078 3.458-.453 10.916 5.34 15.149 1.523 1.112 4.39 1.259 5.903.22 1.277-.878 2.32-2.544 1.378-5.696M37.984 89.41l-7.851 6.067M84.077 95.477c.771 3.087 5.48 5.916 7.569 7.356l-1.906 14.072c0 1.285.333 2.523 1.052 3.412 1.892 2.34 4.328 1.311 4.328 1.311" stroke="#fff" stroke-width="2.869" stroke-miterlimit="10" stroke-linecap="round" stroke-linejoin="round"/></svg><svg fill="none" viewBox="0 0 6 32" id="order-menu" xmlns="http://www.w3.org/2000/svg"><path d="M0 3.25a3 3 0 1 1 6 0 3 3 0 0 1-6 0ZM3 13a3 3 0 1 0 0 6 3 3 0 0 0 0-6Zm0 12.75a3 3 0 1 0 0 6 3 3 0 0 0 0-6Z" fill="#fff"/></svg><svg fill="none" viewBox="0 0 54 54" id="orders-user" xmlns="http://www.w3.org/2000/svg"><path fill-rule="evenodd" clip-rule="evenodd" d="M53.667 27c0 14.728-11.939 26.666-26.667 26.666C12.272 53.666.333 41.728.333 27S12.272.333 27 .333C41.728.333 53.667 12.272 53.667 27ZM35 19a8 8 0 1 1-16 0 8 8 0 0 1 16 0Zm-8 30.666a22.56 22.56 0 0 0 12.819-3.97c1.61-1.107 2.298-3.214 1.36-4.928C39.24 37.213 35.24 35 27 35s-12.24 2.213-14.181 5.768c-.936 1.714-.248 3.821 1.362 4.928A22.56 22.56 0 0 0 27 49.666Z" fill="#FFFDFD"/></svg><svg fill="none" viewBox="0 0 100 100" id="phone" xmlns="http://www.w3.org/2000/svg"><path opacity=".2" fill-rule="evenodd" clip-rule="evenodd" d="M51.923 100C78.477 100 100 78.477 100 51.923S78.477 3.846 51.923 3.846 3.846 25.37 3.846 51.923 25.37 100 51.923 100zm0-7.692c22.304 0 40.385-18.081 40.385-40.385S74.227 11.538 51.923 11.538 11.538 29.62 11.538 51.923 29.62 92.308 51.923 92.308z" fill="#334147"/><path opacity=".2" d="m59.38 56.823 2.24-2.238a11.538 11.538 0 0 1 16.315 0l5.442 5.442a11.539 11.539 0 0 1 0 16.315L72.585 87.135a3.846 3.846 0 0 1-4.093.873c-24.961-9.531-42.053-26.739-51.184-51.2a3.846 3.846 0 0 1 .884-4.066L28.985 21.95a11.539 11.539 0 0 1 16.315 0l5.439 5.439a11.539 11.539 0 0 1 0 16.319l-2.231 2.23A119.731 119.731 0 0 0 59.38 56.823z" fill="#334147"/><path fill-rule="evenodd" clip-rule="evenodd" d="m61.054 48.254-3.5 3.504a121.728 121.728 0 0 1-13.596-13.604l3.5-3.5a9.615 9.615 0 0 0 0-13.596l-5.439-5.442a9.616 9.616 0 0 0-13.6 0L17.627 26.407a1.924 1.924 0 0 0-.438 2.034C26.127 52.39 42.808 69.185 67.258 78.52a1.924 1.924 0 0 0 2.042-.438l10.792-10.789a9.617 9.617 0 0 0 0-13.6l-5.438-5.438a9.613 9.613 0 0 0-13.6 0zm16.32 8.158a5.768 5.768 0 0 1 0 8.161l-9.905 9.904c-22.388-8.87-37.734-24.308-46.242-46.23l9.912-9.908a5.77 5.77 0 0 1 8.161 0l5.439 5.438a5.769 5.769 0 0 1 0 8.158l-4.747 4.746a1.923 1.923 0 0 0-.123 2.588 125.648 125.648 0 0 0 16.566 16.577 1.923 1.923 0 0 0 2.588-.119l4.75-4.754a5.77 5.77 0 0 1 8.162 0l5.438 5.439z" fill="#334147"/><path d="M15.962 18.762a1.978 1.978 0 1 1 2.8-2.796l65.273 65.272a1.977 1.977 0 0 1-2.796 2.797L15.962 18.762z" fill="#334147"/><path fill-rule="evenodd" clip-rule="evenodd" d="M50 94.23c24.427 0 44.23-19.803 44.23-44.23C94.23 25.573 74.428 5.77 50 5.77 25.573 5.77 5.77 25.572 5.77 50c0 24.427 19.803 44.23 44.23 44.23zm0 3.847c26.554 0 48.077-21.523 48.077-48.077S76.554 1.923 50 1.923 1.923 23.446 1.923 50 23.446 98.077 50 98.077z" fill="#334147"/></svg><svg fill="none" viewBox="0 0 64 64" id="telegram" xmlns="http://www.w3.org/2000/svg"><path d="M32 0C14.327 0 0 14.327 0 32c0 17.673 14.327 32 32 32 17.673 0 32-14.327 32-32C64 14.327 49.673 0 32 0z" fill="#40B3E0"/><path d="m47.57 18.408-5.715 28.816s-.8 1.999-2.997 1.04l-13.19-10.112-4.796-2.318-8.073-2.718s-1.24-.44-1.36-1.399c-.12-.96 1.4-1.479 1.4-1.479l32.094-12.59s2.638-1.159 2.638.76z" fill="#fff"/><path d="M24.654 46.9s-.385-.035-.864-1.554c-.48-1.519-2.918-9.512-2.918-9.512l19.384-12.31s1.12-.68 1.08 0c0 0 .2.12-.4.679-.6.56-15.228 13.709-15.228 13.709" fill="#D2E5F1"/><path d="m30.725 42.029-5.217 4.756s-.407.31-.854.116l1-8.836" fill="#B5CFE4"/></svg><svg fill="none" viewBox="0 0 54 54" id="user" xmlns="http://www.w3.org/2000/svg"><path fill-rule="evenodd" clip-rule="evenodd" d="M53.333 26.667c0 14.728-11.938 26.666-26.666 26.666S0 41.395 0 26.667 11.939 0 26.667 0c14.728 0 26.666 11.939 26.666 26.667Zm-18.666-8a8 8 0 1 1-16 0 8 8 0 0 1 16 0Zm-8 30.666a22.56 22.56 0 0 0 12.818-3.97c1.611-1.107 2.299-3.214 1.36-4.928-1.938-3.555-5.938-5.768-14.178-5.768-8.24 0-12.24 2.213-14.182 5.768-.936 1.714-.248 3.821 1.363 4.928a22.56 22.56 0 0 0 12.819 3.97Z" fill="#839489"/></svg></svg>