<svg width="64" height="64" fill="none" xmlns="http://www.w3.org/2000/svg"><path d="M32 64c17.673 0 32-14.327 32-32C64 14.327 49.673 0 32 0 14.327 0 0 14.327 0 32c0 17.673 14.327 32 32 32z" fill="#E4405F"/><path d="M32 16c-4.344 0-4.887.019-6.594.094-1.706.081-2.862.35-3.881.743a7.895 7.895 0 00-2.837 1.844 7.712 7.712 0 00-1.844 2.838c-.394 1.019-.663 2.181-.744 3.881-.081 1.706-.094 2.25-.094 6.594 0 4.343.019 4.887.094 6.593.081 1.7.35 2.863.744 3.882a7.896 7.896 0 001.843 2.837 7.79 7.79 0 002.838 1.844c1.019.394 2.181.663 3.881.744 1.707.081 2.25.093 6.594.093s4.888-.018 6.594-.093c1.7-.081 2.862-.35 3.881-.744a7.896 7.896 0 002.837-1.844 7.789 7.789 0 001.844-2.837c.394-1.019.663-2.181.744-3.882.081-1.706.094-2.25.094-6.593 0-4.344-.019-4.888-.094-6.594-.081-1.7-.35-2.862-.744-3.881a7.896 7.896 0 00-1.843-2.838 7.79 7.79 0 00-2.838-1.844c-1.019-.393-2.181-.662-3.881-.743C36.888 16.019 36.344 16 32 16zm0 2.881c4.269 0 4.781.019 6.469.094 1.562.075 2.406.331 2.968.556.75.288 1.282.638 1.844 1.194a4.971 4.971 0 011.194 1.844c.219.562.481 1.406.55 2.969.075 1.687.094 2.193.094 6.468s-.019 4.782-.1 6.469c-.081 1.563-.344 2.406-.563 2.969-.3.75-.637 1.281-1.2 1.843-.556.557-1.1.907-1.837 1.194-.563.219-1.419.481-2.981.55-1.7.075-2.2.094-6.482.094-4.281 0-4.781-.019-6.481-.1-1.563-.081-2.419-.344-2.981-.563-.756-.3-1.282-.637-1.838-1.2a4.862 4.862 0 01-1.2-1.837c-.218-.563-.481-1.419-.562-2.981-.063-1.681-.081-2.2-.081-6.457 0-4.262.018-4.78.08-6.48.082-1.563.338-2.42.563-2.982.282-.762.638-1.281 1.2-1.844.556-.556 1.082-.919 1.838-1.2.562-.219 1.4-.481 2.962-.562 1.7-.063 2.2-.082 6.482-.082l.062.044zm0 4.9A8.22 8.22 0 0023.781 32 8.22 8.22 0 0032 40.219 8.22 8.22 0 0040.219 32 8.22 8.22 0 0032 23.781zm0 13.55a5.332 5.332 0 11.001-10.664A5.332 5.332 0 0132 37.331zm10.462-13.869a1.92 1.92 0 01-3.837 0c0-1.056.862-1.918 1.919-1.918a1.915 1.915 0 011.919 1.918z" fill="#fff"/></svg>