<svg width="100" height="100" fill="none" xmlns="http://www.w3.org/2000/svg"><path opacity=".2" fill-rule="evenodd" clip-rule="evenodd" d="M51.923 100C78.477 100 100 78.477 100 51.923S78.477 3.846 51.923 3.846 3.846 25.37 3.846 51.923 25.37 100 51.923 100zm0-7.692c22.304 0 40.385-18.081 40.385-40.385S74.227 11.538 51.923 11.538 11.538 29.62 11.538 51.923 29.62 92.308 51.923 92.308z" fill="#334147"/><path opacity=".2" d="M59.38 56.823l2.24-2.238a11.538 11.538 0 0116.315 0l5.442 5.442a11.539 11.539 0 010 16.315L72.585 87.135a3.846 3.846 0 01-4.093.873c-24.961-9.531-42.053-26.739-51.184-51.2a3.846 3.846 0 01.884-4.066L28.985 21.95a11.539 11.539 0 0116.315 0l5.439 5.439a11.539 11.539 0 010 16.319l-2.231 2.23A119.731 119.731 0 0059.38 56.823z" fill="#334147"/><path fill-rule="evenodd" clip-rule="evenodd" d="M61.054 48.254l-3.5 3.504a121.728 121.728 0 01-13.596-13.604l3.5-3.5a9.615 9.615 0 000-13.596l-5.439-5.442a9.616 9.616 0 00-13.6 0L17.627 26.407a1.924 1.924 0 00-.438 2.034C26.127 52.39 42.808 69.185 67.258 78.52a1.924 1.924 0 002.042-.438l10.792-10.789a9.617 9.617 0 000-13.6l-5.438-5.438a9.613 9.613 0 00-13.6 0zm16.32 8.158a5.768 5.768 0 010 8.161l-9.905 9.904c-22.388-8.87-37.734-24.308-46.242-46.23l9.912-9.908a5.77 5.77 0 018.161 0l5.439 5.438a5.769 5.769 0 010 8.158l-4.747 4.746a1.923 1.923 0 00-.123 2.588 125.648 125.648 0 0016.566 16.577 1.923 1.923 0 002.588-.119l4.75-4.754a5.77 5.77 0 018.162 0l5.438 5.439z" fill="#334147"/><path d="M15.962 18.762a1.978 1.978 0 112.8-2.796l65.273 65.272a1.977 1.977 0 01-2.796 2.797L15.962 18.762z" fill="#334147"/><path fill-rule="evenodd" clip-rule="evenodd" d="M50 94.23c24.427 0 44.23-19.803 44.23-44.23C94.23 25.573 74.428 5.77 50 5.77 25.573 5.77 5.77 25.572 5.77 50c0 24.427 19.803 44.23 44.23 44.23zm0 3.847c26.554 0 48.077-21.523 48.077-48.077S76.554 1.923 50 1.923 1.923 23.446 1.923 50 23.446 98.077 50 98.077z" fill="#334147"/></svg>