<svg width="64" height="64" fill="none" xmlns="http://www.w3.org/2000/svg"><path d="M32 0C14.327 0 0 14.327 0 32c0 17.673 14.327 32 32 32 17.673 0 32-14.327 32-32C64 14.327 49.673 0 32 0z" fill="#40B3E0"/><path d="M47.57 18.408l-5.715 28.816s-.8 1.999-2.997 1.04l-13.19-10.112-4.796-2.318-8.073-2.718s-1.24-.44-1.36-1.399c-.12-.96 1.4-1.479 1.4-1.479l32.094-12.59s2.638-1.159 2.638.76z" fill="#fff"/><path d="M24.654 46.9s-.385-.035-.864-1.554c-.48-1.519-2.918-9.512-2.918-9.512l19.384-12.31s1.12-.68 1.08 0c0 0 .2.12-.4.679-.6.56-15.228 13.709-15.228 13.709" fill="#D2E5F1"/><path d="M30.725 42.029l-5.217 4.756s-.407.31-.854.116l1-8.836" fill="#B5CFE4"/></svg>