<svg width="64" height="64" viewBox="0 0 64 64" fill="none" xmlns="http://www.w3.org/2000/svg">
<path d="M32 64C49.6731 64 64 49.6731 64 32C64 14.3269 49.6731 0 32 0C14.3269 0 0 14.3269 0 32C0 49.6731 14.3269 64 32 64Z" fill="#3C5A99"/>
<path d="M34.4874 48.0001V33.4251H39.4L40.1375 27.7188H34.4874V24.0876C34.4874 22.4376 34.9437 21.3188 37.3062 21.3188H40.2999V16.2313C39.7812 16.1626 37.9937 16.0063 35.9124 16.0063C31.5687 16.0063 28.5937 18.6563 28.5937 23.5251V27.7251H23.7V33.4313H28.5937V48.0001H34.4874Z" fill="white"/>
</svg>
