<svg width="64" height="64" viewBox="0 0 64 64" fill="none" xmlns="http://www.w3.org/2000/svg">
<path d="M32 64C49.6731 64 64 49.6731 64 32C64 14.3269 49.6731 0 32 0C14.3269 0 0 14.3269 0 32C0 49.6731 14.3269 64 32 64Z" fill="#E4405F"/>
<path d="M32 16C27.6562 16 27.1125 16.0187 25.4062 16.0937C23.7 16.175 22.5437 16.4437 21.525 16.8375C20.475 17.2437 19.5812 17.7937 18.6875 18.6812C17.7937 19.5687 17.25 20.4625 16.8437 21.5187C16.45 22.5375 16.1812 23.7 16.1 25.4C16.0187 27.1062 16.0062 27.65 16.0062 31.9937C16.0062 36.3375 16.025 36.8813 16.1 38.5875C16.1812 40.2875 16.45 41.45 16.8437 42.4687C17.25 43.5187 17.8 44.4125 18.6875 45.3062C19.575 46.1938 20.4687 46.7437 21.525 47.15C22.5437 47.5437 23.7062 47.8125 25.4062 47.8937C27.1125 47.975 27.6562 47.9875 32 47.9875C36.3437 47.9875 36.8875 47.9687 38.5937 47.8937C40.2937 47.8125 41.4562 47.5437 42.475 47.15C43.525 46.7437 44.4187 46.1938 45.3125 45.3062C46.2 44.4188 46.75 43.525 47.1562 42.4687C47.55 41.45 47.8187 40.2875 47.9 38.5875C47.9812 36.8813 47.9937 36.3375 47.9937 31.9937C47.9937 27.65 47.975 27.1062 47.9 25.4C47.8187 23.7 47.55 22.5375 47.1562 21.5187C46.75 20.4687 46.2 19.575 45.3125 18.6812C44.425 17.7937 43.5312 17.2437 42.475 16.8375C41.4562 16.4437 40.2937 16.175 38.5937 16.0937C36.8875 16.0187 36.3437 16 32 16ZM32 18.8813C36.2687 18.8813 36.7812 18.9 38.4687 18.975C40.0312 19.05 40.875 19.3062 41.4375 19.5312C42.1875 19.8187 42.7187 20.1688 43.2812 20.725C43.8375 21.2875 44.1875 21.8187 44.475 22.5687C44.6937 23.1312 44.9562 23.975 45.025 25.5375C45.1 27.225 45.1187 27.7312 45.1187 32.0062C45.1187 36.2812 45.1 36.7875 45.0187 38.475C44.9375 40.0375 44.675 40.8812 44.4562 41.4437C44.1562 42.1937 43.8187 42.725 43.2562 43.2875C42.7 43.8437 42.1562 44.1937 41.4187 44.4812C40.8562 44.7 40 44.9625 38.4375 45.0312C36.7375 45.1062 36.2375 45.125 31.9562 45.125C27.675 45.125 27.175 45.1062 25.475 45.025C23.9125 44.9438 23.0562 44.6812 22.4937 44.4625C21.7375 44.1625 21.2125 43.825 20.6562 43.2625C20.0937 42.7062 19.7375 42.1625 19.4562 41.425C19.2375 40.8625 18.975 40.0062 18.8937 38.4437C18.8312 36.7625 18.8125 36.2437 18.8125 31.9875C18.8125 27.725 18.8312 27.2063 18.8937 25.5062C18.975 23.9437 19.2312 23.0875 19.4562 22.525C19.7375 21.7625 20.0937 21.2437 20.6562 20.6812C21.2125 20.125 21.7375 19.7625 22.4937 19.4813C23.0562 19.2625 23.8937 19 25.4562 18.9188C27.1562 18.8563 27.6562 18.8375 31.9375 18.8375L32 18.8813ZM32 23.7812C27.4625 23.7812 23.7812 27.4625 23.7812 32C23.7812 36.5375 27.4625 40.2187 32 40.2187C36.5375 40.2187 40.2187 36.5375 40.2187 32C40.2187 27.4625 36.5375 23.7812 32 23.7812ZM32 37.3312C29.0562 37.3312 26.6687 34.9437 26.6687 32C26.6687 29.0562 29.0562 26.6687 32 26.6687C34.9437 26.6687 37.3312 29.0562 37.3312 32C37.3312 34.9437 34.9437 37.3312 32 37.3312ZM42.4625 23.4625C42.4625 24.525 41.6 25.3812 40.5437 25.3812C39.4812 25.3812 38.625 24.5187 38.625 23.4625C38.625 22.4062 39.4875 21.5438 40.5437 21.5438C41.6 21.5375 42.4625 22.4 42.4625 23.4625Z" fill="white"/>
</svg>
