<svg width="100" height="100" viewBox="0 0 100 100" fill="none" xmlns="http://www.w3.org/2000/svg">
<path opacity="0.2" fill-rule="evenodd" clip-rule="evenodd" d="M51.9231 100C78.477 100 100 78.477 100 51.9231C100 25.3693 78.477 3.84619 51.9231 3.84619C25.3693 3.84619 3.84619 25.3693 3.84619 51.9231C3.84619 78.477 25.3693 100 51.9231 100ZM51.9231 92.3077C74.227 92.3077 92.3077 74.227 92.3077 51.9231C92.3077 29.6193 74.227 11.5385 51.9231 11.5385C29.6193 11.5385 11.5385 29.6193 11.5385 51.9231C11.5385 74.227 29.6193 92.3077 51.9231 92.3077Z" fill="#334147"/>
<path opacity="0.2" d="M59.3808 56.8232L61.6193 54.5847C63.783 52.4216 66.7174 51.2064 69.777 51.2064C72.8365 51.2064 75.7709 52.4216 77.9347 54.5847L83.377 60.027C85.5401 62.1908 86.7553 65.1251 86.7553 68.1847C86.7553 71.2443 85.5401 74.1786 83.377 76.3424L72.5846 87.1347C72.0596 87.6597 71.3938 88.0215 70.6676 88.1765C69.9414 88.3314 69.186 88.2728 68.4923 88.0078C43.5308 78.477 26.4385 61.2693 17.3077 36.8078C17.0498 36.1167 16.996 35.366 17.1529 34.6451C17.3097 33.9243 17.6706 33.2638 18.1923 32.7424L28.9846 21.9501C31.1484 19.787 34.0828 18.5718 37.1423 18.5718C40.2019 18.5718 43.1363 19.787 45.3 21.9501L50.7385 27.3885C51.8102 28.46 52.6602 29.7321 53.2402 31.1321C53.8202 32.5322 54.1187 34.0327 54.1187 35.5482C54.1187 37.0636 53.8202 38.5642 53.2402 39.9642C52.6602 41.3642 51.8102 42.6363 50.7385 43.7078L48.5077 45.9385C51.895 49.7961 55.5268 53.4318 59.3808 56.8232Z" fill="#334147"/>
<path fill-rule="evenodd" clip-rule="evenodd" d="M61.0539 48.254L57.5539 51.7578C52.6701 47.5889 48.1239 43.0401 43.9577 38.154L47.4577 34.654C49.2604 32.8508 50.273 30.4056 50.273 27.8559C50.273 25.3062 49.2604 22.861 47.4577 21.0578L42.0193 15.6155C41.1264 14.7224 40.0663 14.0139 38.8995 13.5305C37.7328 13.0471 36.4822 12.7983 35.2193 12.7983C33.9564 12.7983 32.7058 13.0471 31.5391 13.5305C30.3723 14.0139 29.3122 14.7224 28.4193 15.6155L17.627 26.4078C17.3664 26.6691 17.1865 26.9999 17.1087 27.3607C17.031 27.7215 17.0587 28.097 17.1885 28.4424C26.127 52.3886 42.8077 69.1848 67.2577 78.5194C67.6042 78.6508 67.9813 78.6794 68.3436 78.6016C68.7059 78.5238 69.0381 78.343 69.3001 78.0809L80.0924 67.2924C80.9855 66.3995 81.694 65.3394 82.1774 64.1727C82.6608 63.0059 82.9095 61.7554 82.9095 60.4924C82.9095 59.2295 82.6608 57.979 82.1774 56.8122C81.694 55.6455 80.9855 54.5853 80.0924 53.6924L74.6539 48.254C73.761 47.3608 72.7009 46.6523 71.5341 46.169C70.3674 45.6856 69.1168 45.4368 67.8539 45.4368C66.591 45.4368 65.3404 45.6856 64.1737 46.169C63.0069 46.6523 61.9468 47.3608 61.0539 48.254ZM77.3731 56.4117C77.9093 56.9474 78.3345 57.5836 78.6247 58.2838C78.9149 58.984 79.0642 59.7345 79.0642 60.4924C79.0642 61.2504 78.9149 62.0009 78.6247 62.7011C78.3345 63.4013 77.9093 64.0374 77.3731 64.5732L67.4693 74.4771C45.0808 65.6078 29.7347 50.1694 21.227 28.2463L31.1385 18.3386C31.6743 17.8025 32.3104 17.3772 33.0106 17.087C33.7108 16.7969 34.4613 16.6475 35.2193 16.6475C35.9772 16.6475 36.7277 16.7969 37.4279 17.087C38.1281 17.3772 38.7643 17.8025 39.3001 18.3386L44.7385 23.7771C45.8201 24.8589 46.4277 26.3261 46.4277 27.8559C46.4277 29.3857 45.8201 30.8529 44.7385 31.9348L39.9924 36.6809C39.6529 37.0194 39.4521 37.4725 39.4294 37.9513C39.4066 38.4301 39.5635 38.9002 39.8693 39.2694C44.8626 45.299 50.4085 50.8488 56.4347 55.8463C56.8034 56.1526 57.2732 56.3101 57.752 56.2881C58.2308 56.266 58.6841 56.0659 59.0231 55.7271L63.7731 50.9732C64.3089 50.4371 64.9451 50.0118 65.6453 49.7216C66.3455 49.4315 67.096 49.2821 67.8539 49.2821C68.6118 49.2821 69.3624 49.4315 70.0625 49.7216C70.7627 50.0118 71.3989 50.4371 71.9347 50.9732L77.3731 56.4117Z" fill="#334147"/>
<path d="M15.9616 18.7616C15.5908 18.3903 15.3827 17.8869 15.3831 17.3622C15.3834 16.8374 15.5922 16.3343 15.9635 15.9635C16.3348 15.5928 16.8382 15.3846 17.363 15.385C17.8877 15.3854 18.3908 15.5942 18.7616 15.9655L84.0347 81.2385C84.4055 81.6093 84.6138 82.1122 84.6138 82.6366C84.6138 83.161 84.4055 83.6639 84.0347 84.0347C83.6639 84.4055 83.161 84.6138 82.6366 84.6138C82.1122 84.6138 81.6093 84.4055 81.2385 84.0347L15.9616 18.7616Z" fill="#334147"/>
<path fill-rule="evenodd" clip-rule="evenodd" d="M50 94.2308C74.4269 94.2308 94.2308 74.4269 94.2308 50C94.2308 25.5731 74.4269 5.76925 50 5.76925C25.5731 5.76925 5.76925 25.5731 5.76925 50C5.76925 74.4269 25.5731 94.2308 50 94.2308ZM50 98.0769C76.5539 98.0769 98.0769 76.5539 98.0769 50C98.0769 23.4462 76.5539 1.9231 50 1.9231C23.4462 1.9231 1.9231 23.4462 1.9231 50C1.9231 76.5539 23.4462 98.0769 50 98.0769Z" fill="#334147"/>
</svg>
