<svg width="64" height="64" viewBox="0 0 64 64" fill="none" xmlns="http://www.w3.org/2000/svg">
<path d="M32 0C14.3267 0 0 14.3267 0 32C0 49.6732 14.3267 64 32 64C49.6732 64 64 49.6732 64 32C64 14.3267 49.6732 0 32 0Z" fill="#40B3E0"/>
<path d="M47.5706 18.4077L41.8551 47.2245C41.8551 47.2245 41.0558 49.223 38.8576 48.2637L25.6681 38.1517L20.8721 35.8337L12.7986 33.1157C12.7986 33.1157 11.5596 32.6762 11.4396 31.717C11.3198 30.7577 12.8386 30.2382 12.8386 30.2382L44.9326 17.6482C44.9326 17.6482 47.5706 16.4892 47.5706 18.4077Z" fill="white"/>
<path d="M24.6544 46.9009C24.6544 46.9009 24.2694 46.8649 23.7897 45.3459C23.3102 43.8272 20.8722 35.8337 20.8722 35.8337L40.2564 23.5237C40.2564 23.5237 41.3757 22.8442 41.3357 23.5237C41.3357 23.5237 41.5354 23.6434 40.9359 24.2029C40.3364 24.7627 25.7082 37.9119 25.7082 37.9119" fill="#D2E5F1"/>
<path d="M30.7254 42.0287L25.5084 46.7852C25.5084 46.7852 25.1007 47.0947 24.6544 46.9007L25.6534 38.0654" fill="#B5CFE4"/>
</svg>
